<?xml version="1.0" standalone="no"?>
<!DOCTYPE svg PUBLIC "-//W3C//DTD SVG 1.0//EN" "http://www.w3.org/TR/2001/REC-SVG-20010904/DTD/svg10.dtd">
<svg xmlns="http://www.w3.org/2000/svg" xmlns:xlink="http://www.w3.org/1999/xlink" id="body_1" width="800" height="800">

<g transform="matrix(50 0 0 50 0 0)">
	<path  d="M0 0L7.971 15.516L16 0L0 0zM6.732 6.16L5.462 6.16L5.462 4.89L6.732 4.89L6.732 6.16zM6.732 4.2539997L5.462 4.2539997L5.462 2.985L6.732 2.985L6.732 4.2539997zM8.636 8.063999L7.3659997 8.063999L7.3659997 6.793999L8.636 6.793999L8.636 8.063999zM8.636 6.1589994L7.3659997 6.1589994L7.3659997 4.89L8.636 4.89L8.636 6.16zM8.636 4.2539997L7.3659997 4.2539997L7.3659997 2.985L8.636 2.985L8.636 4.2539997zM10.53 6.1589994L9.26 6.1589994L9.26 4.89L10.530001 4.89L10.530001 6.16zM9.26 4.254L9.26 2.985L10.530001 2.985L10.530001 4.2539997L9.26 4.2539997z" stroke="none"  fill="#FFD814" fill-rule="nonzero" />
</g>
</svg>
